<svg xmlns="http://www.w3.org/2000/svg" viewBox="0 0 64 64">
  <path d="M12 28 26 20 41 28 27 37Z" fill="#f4f4f4" stroke="#202020" stroke-width="1.25" stroke-linejoin="round"/>
  <path d="M12 28v16l15 9V37Z" fill="#d4d4d4" stroke="#202020" stroke-width="1.25" stroke-linejoin="round"/>
  <path d="M41 28v16l-14 9V37Z" fill="#9f9f9f" stroke="#202020" stroke-width="1.25" stroke-linejoin="round"/>
  <path d="M38 33 47 26 58 42 49 49Z" fill="#f4f4f4" stroke="#202020" stroke-width="1.25" stroke-linejoin="round"/>
  <path d="M49 49v13l9-5V42Z" fill="#9f9f9f" stroke="#202020" stroke-width="1.25" stroke-linejoin="round"/>
  <path d="M44 34 52 45" fill="none" stroke="#b9bec7" stroke-width="1.3"/>
  <path d="M24 38c-4.2-1.1-5.2-5.3-2-7.3 1.1-5.2 8.2-5.2 9.5.1 3.2 0 5.5 2.2 5.5 5.2 0 4.1-4.1 6.2-8.8 5.2Z" fill="#6f737a"/>
</svg>
